<?xml version="1.0" standalone="no"?>
<!DOCTYPE svg PUBLIC "-//W3C//DTD SVG 20010904//EN"
 "http://www.w3.org/TR/2001/REC-SVG-20010904/DTD/svg10.dtd">
<svg version="1.0" xmlns="http://www.w3.org/2000/svg"
 width="640.000000pt" height="640.000000pt" viewBox="0 0 640.000000 640.000000"
 preserveAspectRatio="xMidYMid meet">
<metadata>
Created by potrace 1.11, written by Peter Selinger 2001-2013
</metadata>
<g transform="translate(0.000000,640.000000) scale(0.100000,-0.100000)"
fill="#000000" stroke="none">
<path d="M0 3200 l0 -3200 3200 0 3200 0 0 3200 0 3200 -3200 0 -3200 0 0
-3200z m4518 2373 l2 -263 265 0 265 0 2 -262 3 -263 263 -3 262 -2 0 -1320 0
-1320 -262 -2 -263 -3 -3 -262 -2 -263 -265 0 -265 0 0 -525 0 -525 -265 0
-265 0 0 260 0 260 -265 0 -265 0 0 -260 0 -260 -265 0 -265 0 0 260 0 260
-260 0 c-143 0 -260 -3 -260 -7 0 -5 -1 -122 -2 -260 l-2 -253 -268 0 -268 0
0 525 0 525 -262 2 -263 3 -3 263 -2 262 -260 0 -260 0 0 1320 0 1320 260 0
260 0 2 263 3 262 263 3 262 2 0 258 c0 142 3 262 7 265 3 4 599 6 1322 5
l1316 -3 3 -262z"/>
<path d="M1350 3195 l0 -525 525 0 525 0 0 525 0 525 -525 0 -525 0 0 -525z"/>
<path d="M3990 3195 l0 -525 530 0 530 0 0 525 0 525 -530 0 -530 0 0 -525z"/>
<path d="M2942 2408 l3 -263 255 0 255 0 0 260 0 260 -258 3 -257 2 2 -262z"/>
</g>
</svg>
